<?xml version="1.0" encoding="utf-8"?>
<!-- Generator: Adobe Illustrator 19.0.0, SVG Export Plug-In . SVG Version: 6.00 Build 0)  -->
<svg version="1.1" id="Layer_1" xmlns="http://www.w3.org/2000/svg" xmlns:xlink="http://www.w3.org/1999/xlink" x="0px" y="0px"
	 viewBox="-430 218.5 98.2 125" enable-background="new -430 218.5 98.2 125" xml:space="preserve">
<g id="logo">
	<path id="XMLID_11_" fill="#40444F" d="M-381.1,227.1l-3.4,7.2c0,0,1.9,1.7,3.4,1.7s3.4-1.7,3.4-1.7L-381.1,227.1z"/>
	<circle id="XMLID_7_" fill="#40444F" cx="-381.1" cy="221.2" r="2.7"/>
	<polyline id="XMLID_10_" fill="none" stroke="#40444F" stroke-width="2" stroke-linecap="round" stroke-miterlimit="10" points="
		-381.1,227.1 -368.7,253.2 -368.7,266.5 -393.6,266.5 -393.6,253.2 -381.1,227.1 	"/>
	<path id="XMLID_12_" fill="none" stroke="#40444F" stroke-width="2" stroke-linecap="round" stroke-miterlimit="10" d="
		M-381.1,330.9l12.5-26.1h2.3c0,0,0-1.9-0.4-2.3c-0.3-0.4-1.9-0.9-1.9-0.9v-10.2h-24.9v10.2c0,0-1.6,0.5-1.9,0.9
		c-0.4,0.5-0.4,2.3-0.4,2.3h2.3L-381.1,330.9"/>
	<path id="XMLID_28_" fill="#40444F" d="M-345.3,265.5h-23.3v-12.2l-5.2,6.3l-7.3-6.3l-7.3,6.3l-5.2-6.3v12.2h-8.7l-2.7-6.6l-25,6.6
		V279c0,7.5,6.1,13.5,13.5,13.5h22.9v9.1c0,0-1.6,0.5-1.9,0.9c-0.4,0.5-0.4,2.3-0.4,2.3h29.5c0,0,0-1.9-0.4-2.3
		c-0.3-0.4-1.9-0.9-1.9-0.9v-9.1h9.1l2.7,6.6l25-6.6V279C-331.8,271.5-337.9,265.5-345.3,265.5z M-334,290.3h-82.5
		c-6.3,0-11.4-5.1-11.4-11.4v-11.4h82.5c6.3,0,11.4,5.1,11.4,11.4V290.3z"/>
	<path id="XMLID_13_" fill="#40444F" d="M-379,313.3c0-1.2-1-2.1-2.1-2.1s-2.1,1-2.1,2.1c0,0.8,0.4,1.5,1.1,1.8v15.8
		c0,0.6,0.5,1.1,1.1,1.1s1.1-0.5,1.1-1.1v-15.8C-379.4,314.8-379,314.1-379,313.3z"/>
	<path id="XMLID_18_" fill="#40444F" d="M-379.2,338.9l3.1-2.7c0.4-0.4,0.5-1.1,0.1-1.5c-0.4-0.4-1.1-0.5-1.5-0.1l-3.4,2.9l-3.4-2.9
		c-0.4-0.4-1.1-0.3-1.5,0.1c-0.4,0.4-0.3,1.1,0.1,1.5l3.1,2.7l-3.1,2.7c-0.4,0.4-0.5,1.1-0.1,1.5c0.2,0.2,0.5,0.4,0.8,0.4
		c0.2,0,0.5-0.1,0.7-0.3l3.4-2.9l3.4,2.9c0.2,0.2,0.5,0.3,0.7,0.3c0.3,0,0.6-0.1,0.8-0.4c0.4-0.4,0.3-1.1-0.1-1.5L-379.2,338.9z"/>
	<g id="XMLID_6_">
		<path id="XMLID_8_" fill="#40444F" d="M-415.8,283.7v-8.1h2.6c1.5,0,2.6,0.6,2.6,2.1c0,0.6-0.2,1-0.6,1.4c0.7,0.5,1.1,1.2,1.1,2
			c0,1.6-1.4,2.6-2.9,2.6H-415.8z M-413.2,278.6c0.8,0,0.9-0.4,0.9-0.7c0-0.6-0.4-0.7-0.9-0.7h-0.8v1.5H-413.2z M-412.9,282.2
			c0.7,0,1.1-0.4,1.1-1c0-0.6-0.4-1.1-1.1-1.1h-1.2v2.1H-412.9z"/>
		<path id="XMLID_19_" fill="#40444F" d="M-409.2,279.7c0-2.3,1.9-4.2,4.2-4.2c2.3,0,4.2,1.9,4.2,4.2c0,2.3-1.9,4.2-4.2,4.2
			C-407.3,283.8-409.2,282-409.2,279.7z M-407.5,279.7c0,1.4,1.1,2.6,2.5,2.6c1.4,0,2.4-1.1,2.4-2.6c0-1.4-1.1-2.6-2.5-2.6
			C-406.4,277.1-407.5,278.2-407.5,279.7z"/>
		<path id="XMLID_22_" fill="#40444F" d="M-400,279.7c0-2.3,1.9-4.2,4.2-4.2c2.3,0,4.2,1.9,4.2,4.2c0,2.3-1.9,4.2-4.2,4.2
			C-398.1,283.8-400,282-400,279.7z M-398.3,279.7c0,1.4,1.1,2.6,2.5,2.6c1.4,0,2.4-1.1,2.4-2.6c0-1.4-1.1-2.6-2.5-2.6
			C-397.2,277.1-398.3,278.2-398.3,279.7z"/>
		<path id="XMLID_25_" fill="#40444F" d="M-388.8,279.4l3.8-3.8h2.2l-4,4l4.1,4.1h-2.3l-3-3l-0.9,0.9v2.1h-1.7v-8.1h1.7V279.4z"/>
		<path id="XMLID_39_" fill="#40444F" d="M-372.9,275.6h1.7l-4.1,8.2l-1.8-3.3l-1.7,3.3l-4.3-8.2h1.9l2.4,4.7l0.8-1.5l-1.7-3.3h1.9
			l2.4,4.7L-372.9,275.6z"/>
		<path id="XMLID_57_" fill="#40444F" d="M-371.5,279.7c0-2.3,1.9-4.2,4.2-4.2c2.3,0,4.2,1.9,4.2,4.2c0,2.3-1.9,4.2-4.2,4.2
			C-369.7,283.8-371.5,282-371.5,279.7z M-369.8,279.7c0,1.4,1.1,2.6,2.5,2.6c1.4,0,2.4-1.1,2.4-2.6c0-1.4-1.1-2.6-2.5-2.6
			C-368.7,277.1-369.8,278.2-369.8,279.7z"/>
		<path id="XMLID_60_" fill="#40444F" d="M-360.3,282.3v1.4h-1.7v-8.1h2.8c1.9,0,3.3,1.4,3.3,3.2c0,1.5-0.7,2.5-1.8,3l1.7,1.9h-2.2
			l-1.3-1.4H-360.3z M-359.6,280.8c1.3,0,2.1-0.7,2.1-1.9c0-1-0.6-1.8-1.7-1.8h-1v3.6H-359.6z"/>
		<path id="XMLID_63_" fill="#40444F" d="M-346.1,275.5v8.2h-1.7v-4.9l-2.6,1.9l-2.6-1.9v4.9h-1.7v-8.2l4.3,3.3L-346.1,275.5z"/>
	</g>
</g>
</svg>
