<?xml version="1.0" encoding="utf-8"?>
<!-- Generator: Adobe Illustrator 19.0.0, SVG Export Plug-In . SVG Version: 6.00 Build 0)  -->
<svg version="1.1" id="Layer_1" xmlns="http://www.w3.org/2000/svg" xmlns:xlink="http://www.w3.org/1999/xlink" x="0px" y="0px"
	 viewBox="0 0 98.2 124" enable-background="new 0 0 98.2 124" xml:space="preserve">
<g id="logo">
	<path id="XMLID_11_" fill="#40444F" d="M48.9,8.6l-3.4,7.2c0,0,1.9,1.7,3.4,1.7c1.6,0,3.4-1.7,3.4-1.7L48.9,8.6z"/>
	<circle id="XMLID_7_" fill="#40444F" cx="48.9" cy="2.7" r="2.7"/>
	<polyline id="XMLID_10_" fill="none" stroke="#40444F" stroke-width="2" stroke-linecap="round" stroke-miterlimit="10" points="
		48.9,8.6 61.3,34.7 61.3,48 36.4,48 36.4,34.7 48.9,8.6 	"/>
	<path id="XMLID_12_" fill="none" stroke="#40444F" stroke-width="2" stroke-linecap="round" stroke-miterlimit="10" d="M48.9,112.4
		l12.5-26.1h2.3c0,0,0-1.9-0.4-2.3c-0.3-0.4-1.9-0.9-1.9-0.9V72.9H36.4v10.2c0,0-1.6,0.5-1.9,0.9c-0.4,0.5-0.4,2.3-0.4,2.3h2.3
		L48.9,112.4"/>
	<path id="XMLID_28_" fill="#40444F" d="M84.7,47H61.3V34.7L56.1,41l-7.3-6.3L41.6,41l-5.2-6.3V47h-8.7L25,40.3L0,47v13.5
		C0,67.9,6.1,74,13.5,74h22.9v9.1c0,0-1.6,0.5-1.9,0.9c-0.4,0.5-0.4,2.3-0.4,2.3h29.5c0,0,0-1.9-0.4-2.3c-0.3-0.4-1.9-0.9-1.9-0.9
		V74h9.1l2.7,6.6l25-6.6V60.5C98.2,53,92.1,47,84.7,47z M96,71.8H13.5c-6.3,0-11.4-5.1-11.4-11.4V49.1h82.5
		c6.3,0,11.4,5.1,11.4,11.4V71.8z"/>
	<path id="XMLID_13_" fill="#40444F" d="M51,94.8c0-1.2-1-2.1-2.1-2.1s-2.1,1-2.1,2.1c0,0.8,0.4,1.5,1.1,1.8v15.8
		c0,0.6,0.5,1.1,1.1,1.1c0.6,0,1.1-0.5,1.1-1.1V96.7C50.6,96.3,51,95.6,51,94.8z"/>
	<path id="XMLID_18_" fill="#40444F" d="M50.7,120.4l3.1-2.7c0.4-0.4,0.5-1.1,0.1-1.5c-0.4-0.4-1.1-0.5-1.5-0.1l-3.4,2.9l-3.4-2.9
		c-0.4-0.4-1.1-0.3-1.5,0.1c-0.4,0.4-0.3,1.1,0.1,1.5l3.1,2.7l-3.1,2.7c-0.4,0.4-0.5,1.1-0.1,1.5c0.2,0.2,0.5,0.4,0.8,0.4
		c0.2,0,0.5-0.1,0.7-0.3l3.4-2.9l3.4,2.9c0.2,0.2,0.5,0.3,0.7,0.3c0.3,0,0.6-0.1,0.8-0.4c0.4-0.4,0.3-1.1-0.1-1.5L50.7,120.4z"/>
	<g id="XMLID_6_">
		<path id="XMLID_8_" fill="#40444F" d="M14.2,65.2v-8.1h2.6c1.5,0,2.6,0.6,2.6,2.1c0,0.6-0.2,1-0.6,1.4c0.7,0.5,1.1,1.2,1.1,2
			c0,1.6-1.4,2.6-2.9,2.6H14.2z M16.8,60.1c0.8,0,0.9-0.4,0.9-0.7c0-0.6-0.4-0.7-0.9-0.7h-0.8v1.5H16.8z M17.1,63.7
			c0.7,0,1.1-0.4,1.1-1c0-0.6-0.4-1.1-1.1-1.1h-1.2v2.1H17.1z"/>
		<path id="XMLID_19_" fill="#40444F" d="M20.8,61.2c0-2.3,1.9-4.2,4.2-4.2c2.3,0,4.2,1.9,4.2,4.2c0,2.3-1.9,4.2-4.2,4.2
			C22.6,65.3,20.8,63.5,20.8,61.2z M22.5,61.2c0,1.4,1.1,2.6,2.5,2.6c1.4,0,2.4-1.1,2.4-2.6c0-1.4-1.1-2.6-2.5-2.6
			C23.6,58.6,22.5,59.7,22.5,61.2z"/>
		<path id="XMLID_22_" fill="#40444F" d="M30,61.2c0-2.3,1.9-4.2,4.2-4.2c2.3,0,4.2,1.9,4.2,4.2c0,2.3-1.9,4.2-4.2,4.2
			C31.9,65.3,30,63.5,30,61.2z M31.7,61.2c0,1.4,1.1,2.6,2.5,2.6c1.4,0,2.4-1.1,2.4-2.6c0-1.4-1.1-2.6-2.5-2.6
			C32.8,58.6,31.7,59.7,31.7,61.2z"/>
		<path id="XMLID_25_" fill="#40444F" d="M41.2,60.9l3.8-3.8h2.2l-4,4l4.1,4.1h-2.3l-3-3l-0.9,0.9v2.1h-1.7v-8.1h1.7V60.9z"/>
		<path id="XMLID_39_" fill="#40444F" d="M57.1,57.1h1.7l-4.1,8.2L53,62l-1.7,3.3L47,57.1h1.9l2.4,4.7l0.8-1.5l-1.7-3.3h1.9l2.4,4.7
			L57.1,57.1z"/>
		<path id="XMLID_57_" fill="#40444F" d="M58.5,61.2c0-2.3,1.9-4.2,4.2-4.2c2.3,0,4.2,1.9,4.2,4.2c0,2.3-1.9,4.2-4.2,4.2
			C60.3,65.3,58.5,63.5,58.5,61.2z M60.2,61.2c0,1.4,1.1,2.6,2.5,2.6c1.4,0,2.4-1.1,2.4-2.6c0-1.4-1.1-2.6-2.5-2.6
			C61.3,58.6,60.2,59.7,60.2,61.2z"/>
		<path id="XMLID_60_" fill="#40444F" d="M69.7,63.8v1.4H68v-8.1h2.8c1.9,0,3.3,1.4,3.3,3.2c0,1.5-0.7,2.5-1.8,3l1.7,1.9h-2.2
			l-1.3-1.4H69.7z M70.4,62.3c1.3,0,2.1-0.7,2.1-1.9c0-1-0.6-1.8-1.7-1.8h-1v3.6H70.4z"/>
		<path id="XMLID_63_" fill="#40444F" d="M83.9,57v8.2h-1.7v-4.9l-2.6,1.9L77,60.3v4.9h-1.7V57l4.3,3.3L83.9,57z"/>
	</g>
</g>
</svg>
